<?xml version="1.0" encoding="utf-8"?>
<!-- Generator: Adobe Illustrator 26.0.0, SVG Export Plug-In . SVG Version: 6.00 Build 0)  -->
<svg version="1.1" id="Layer_1" xmlns="http://www.w3.org/2000/svg" xmlns:xlink="http://www.w3.org/1999/xlink" x="0px" y="0px"
	 viewBox="0 0 382 193" style="enable-background:new 0 0 382 193;" xml:space="preserve">
<style type="text/css">
	.st0{fill:#C77D5B;}
	.st1{fill:#323434;}
</style>
<g>
	<path class="st0" d="M362.1,91c-1.5-4.7-3.2-9.3-5.8-13.5c-0.3-0.5-0.6-1-0.9-1.4c-0.6-0.9-1.4-1.9-2.1-2.7
		c-0.4-0.4-0.8-0.9-1.2-1.3c-1.4-1.5-3.1-2.8-4.9-3.9h0c-0.3-0.6-0.6-1.1-0.9-1.7s-0.7-1-1.1-1.5c-1.7-2.2-3.7-4-5.8-5.7
		c-14.7-12.8-29.9-25-43.6-38.8c-7-7-11.4-8.1-20.6-3.9c-9.4,4.2-19,8.1-28.8,11.4c-10.9,3.7-21.9,5.9-33,0.3
		c-2.2-1.1-4.8-1.3-7.2-2c-6.4-1.8-11.7,0-16.4,4.7c-6.3,6.3-11.8,13.1-16.8,20.4c-4.7,6.8-8.8,14.6-15.6,19.3
		c-19.8,13.8-40.2,26.8-64.2,32.4c-12,2.8-23.7,4.2-34.7-2.8c-2.8-1.8-5.4-3.9-8.4-5.5c-6.3-3.4-12.2-2.6-16.1,2.7
		c-6.7,9.3-13.1,18.8-19.4,28.5c-3.3,5-1.5,9.7,4.2,11.9c2,0.8,4.2,1.1,6.3,1.4c8.1,1.1,15.8-0.5,23.6-3c11.2-3.5,22.6-3.4,33.6,0.4
		c12.1,4.2,23.1,4.5,34.6-2.8c16.8-10.5,35.4-14.8,55.4-12.4c5.9,0.7,12,0.3,17.9-1.3c14.4-3.8,27.1-10.8,37.9-20.9
		c12.9-12,27.7-18.2,45.5-17.5c19,0.7,37.4,3.4,55.1,10.4c2.3,1,4.6,1.8,6.8,3c5.4,2.9,10.6,6.1,14.3,11.3c6.9,9.8,8.3,21,8.6,32.7
		c0.5,14.7-1.4,29.2-2.9,43.8c3.6-6.7,5.4-13.9,7.3-21.1C369.1,138.1,369.9,114.5,362.1,91z M45.8,105.4c-3.2,1.8-6.3,3.7-9,6.2
		c-0.7,0.6-1.5,1.6-2.5,0.6c-0.7-0.7-0.2-1.5,0.2-2.3c2.4-4.1,3.9-9,9.2-9.7c2.4,0.4,4.6,0.8,5.1,2.5
		C49.3,104.4,47,104.8,45.8,105.4z M275.8,60.8c-20.6-3.8-40.5-2-58.6,9.1c-10.2,6.2-20.3,10.3-32.5,7.7c-7.6-1.6-14.5,3.2-21.9,4.1
		c-2.1,0.3-4.1,1-6.5,1.1c14.5-8.3,22.1-23.4,34.5-33.8c10.1-8.5,20.6-11,32.4-7.1c19.3,6.3,38.6,12.5,58.6,16.5
		c1.2,0.2,2.5,0.6,3.5,2.5C281.9,61.5,278.8,61.4,275.8,60.8z M317,55.8L317,55.8c-18.8-13-41-12.2-62.7-15.1
		c8.7-11.6,28.6-15.4,40-8c9.2,6,16.3,14.1,23.2,22.5c0.2,0.2,0.6,0.5,0.5,0.6C317.7,56.3,317.3,56.1,317,55.8z"/>
	<path class="st0" d="M330.1,108.8c-10.3,21.9-21.8,43-40.1,59.5c-13.5,12.1-28.7,16.9-46.9,13.6c-17.1-3.1-34.5-4.7-52-5.2
		c-13.8-0.4-27.6-0.7-41.3-2.1c-9.7-1-19.6,0-29.2-2.6c-3.7-0.3-7.4-0.6-11.1-0.9c-8.5-1.9-17.2-1-25.8-1.7
		c-13.4-0.5-26.9,0-40.4-1.3c-7.4-0.7-13.9-3.3-18.3-9.7c-1-1.4-2.7-3.3-0.9-4.8c1.8-1.5,3.8-0.3,5.3,1.2c4,3.8,7.7,7.9,13.5,8.9
		c1.3,0.2,2.9,1.1,3.8,0.1c1.1-1.2-0.3-2.4-0.9-3.5c-0.9-1.7-2.7-3.6-1.6-5.4c1-1.6,3.4-0.6,5.2-0.5c11.8,0.4,23.3,2.6,34.7,5.2
		c3.9,0.9,6,5.7,9,5.2c3.3-0.5,6.1-2.6,9.9-1c2.6,1.1,5.3,1.7,7.7,3.3c0.8,0.6,2,1.9,2.9,0.3c0.5-0.9,1.8-1.8,0.9-3.1
		c-3.2-5,0-7.4,3.8-9.5c0.9-0.5,1.9-1,2.9-1.6l0,0l0.2-0.1l0,0c0,0,0,0,0,0v0c0,0,0,0,0,0c0,0,0,0,0-0.1c0-0.1-0.1-0.2-0.1-0.2
		l-0.2,0.2c0.3-0.3,0.6-0.6,0.9-0.8c0.2-0.2,0.5-0.4,0.7-0.6c0.4-0.3,0.7-0.5,1.1-0.8c0.1-0.1,0.3-0.2,0.4-0.3
		c0.2-0.1,0.4-0.2,0.6-0.4c0.1-0.1,0.3-0.2,0.5-0.2c0.2-0.1,0.4-0.2,0.6-0.3c0.2-0.1,0.4-0.2,0.5-0.2c0.3-0.1,0.7-0.3,1-0.4
		c0.4-0.2,0.9-0.3,1.4-0.5c0.4-0.1,0.8-0.2,1.2-0.4c0.2-0.1,0.4-0.1,0.7-0.2l0,0c1.1-0.4,2.2-0.7,3.3-1c0.3-0.1,0.6-0.2,0.9-0.3
		s0.6-0.2,0.9-0.2c0.2,0,0.4-0.1,0.6-0.1c0.2,0,0.4-0.1,0.6-0.1c0.4-0.1,0.9-0.2,1.3-0.3c0.4-0.1,0.9-0.2,1.3-0.2
		c0.6-0.1,1.3-0.2,1.9-0.3c0.8-0.1,1.6-0.2,2.4-0.3c0.4,0,0.8-0.1,1.2-0.1c0.3,0,0.6,0,0.8-0.1c0.2,0,0.5,0,0.7,0
		c0.6,0,1.2-0.1,1.8-0.1c0.5,0,1,0,1.5,0c6,0,12.1,0.8,18.2,2.3c8.2-0.3,16.2,1.6,24.3,2.5c20.9,2.5,42,3.2,62.7,0
		c19.8-3,38.4-10.3,53.1-25.2c6-6.1,12.6-11.7,19-17.5c0.8-0.7,1.6-2.2,2.9-1.3C331.7,106.6,330.5,107.9,330.1,108.8z"/>
	<path class="st0" d="M121.4,153.2L121.4,153.2l-0.2,0.1l0,0l-0.1-0.1l0.2-0.2c0,0,0,0.1,0.1,0.2
		C121.4,153.1,121.4,153.2,121.4,153.2C121.4,153.2,121.4,153.2,121.4,153.2L121.4,153.2C121.4,153.2,121.4,153.2,121.4,153.2z"/>
	<path class="st0" d="M121.4,153.2l-0.2,0.1l0,0C121.3,153.2,121.3,153.2,121.4,153.2C121.4,153.2,121.4,153.2,121.4,153.2z"/>
	<path d="M109.5,171.1c-8.6-0.2-17.3,0.8-25.8-1.7C92.3,170.1,101,169.1,109.5,171.1z"/>
	<path class="st0" d="M121.4,153.2L121.4,153.2l-0.2,0.1l0,0l-0.1-0.1l0.2-0.2c0,0,0,0.1,0.1,0.2
		C121.4,153.1,121.4,153.2,121.4,153.2C121.4,153.2,121.4,153.2,121.4,153.2L121.4,153.2C121.4,153.2,121.4,153.2,121.4,153.2z"/>
	<path class="st1" d="M318,55.7c-0.3,0.6-0.6,0.4-1,0h0c0,0,0-0.1,0.1-0.1c0,0,0-0.1,0.1-0.1c0.1-0.1,0.2-0.3,0.3-0.4
		C317.6,55.4,318,55.7,318,55.7z"/>
	<path class="st0" d="M223.8,51.9c-9.2,8.8-19.1,15.5-32.4,14.9c-1.3-0.1-2.9,0.4-3.6-0.9c-0.8-1.4,0.6-2.5,1.3-3.5
		C197.4,49.8,210.7,45.7,223.8,51.9z"/>
</g>
</svg>
